<?xml version="1.0" encoding="UTF-8"?>
<svg version="1.1" xmlns="http://www.w3.org/2000/svg" width="1024" height="1024">
<path d="M0 0 C13.53 0 27.06 0 41 0 C42.20398438 3.33480469 43.40796875 6.66960937 44.6484375 10.10546875 C45.81652696 13.33902262 46.98490945 16.57247046 48.15332031 19.8059082 C48.96449936 22.05124015 49.77537426 24.296682 50.5859375 26.54223633 C51.7518018 29.77193762 52.91876326 33.00124066 54.0859375 36.23046875 C54.44746918 37.23272995 54.80900085 38.23499115 55.18148804 39.2676239 C55.52168976 40.20822159 55.86189148 41.14881927 56.21240234 42.11791992 C56.50996429 42.94176682 56.80752625 43.76561371 57.11410522 44.61442566 C57.73925304 46.29784974 58.40974385 47.96476912 59.11172485 49.61763 C60 52 60 52 60 55 C60.99 55.495 60.99 55.495 62 56 C62.724823 57.64552307 62.724823 57.64552307 63.40576172 59.81469727 C63.66793488 60.63010483 63.93010803 61.44551239 64.20022583 62.28562927 C64.62318436 63.63117638 64.62318436 63.63117638 65.0546875 65.00390625 C67.69394115 73.15696515 70.48202768 81.23629996 73.4453125 89.27734375 C73.82701599 90.31363922 74.20871948 91.34993469 74.60198975 92.41763306 C75.77387204 95.59183574 76.94921944 98.76473951 78.125 101.9375 C79.31129315 105.14719811 80.49663335 108.35724571 81.68136597 111.56752014 C82.40937039 113.53931175 83.13837735 115.51073369 83.86868286 117.48167419 C85.82217632 122.76301021 87.74025415 128.05576616 89.63180542 133.3596344 C89.86076728 134.00140767 90.08972914 134.64318093 90.32562923 135.30440187 C90.88397331 136.86952261 91.44201791 138.43475017 92 140 C91.99815641 139.29062853 91.99631283 138.58125706 91.99441338 137.85038948 C91.95028981 120.60851195 91.9171705 103.36664872 91.89637566 86.12472725 C91.88605275 77.78674419 91.8719731 69.44879876 91.84912109 61.11083984 C91.8292182 53.84546792 91.81629095 46.58012323 91.81182301 39.3147248 C91.80921035 35.46594806 91.80304856 31.61724928 91.78853989 27.76849747 C91.77500487 24.14884068 91.77076903 20.52929426 91.77378464 16.90961456 C91.77296866 14.94189551 91.76218573 12.97418858 91.75115967 11.00650024 C91.753909 9.84259766 91.75665833 8.67869507 91.75949097 7.47952271 C91.75764738 6.46370684 91.75580379 5.44789097 91.75390434 4.4012928 C92 2 92 2 94 0 C107.53 0 121.06 0 135 0 C135 83.16 135 166.32 135 252 C91 256 91 256 89 256 C83.52768492 242.35982713 78.68315496 228.5534647 74 214.625 C72.64748236 210.61662955 71.29284771 206.60897683 69.9375 202.6015625 C69.60595413 201.62088806 69.27440826 200.64021362 68.93281555 199.62982178 C63.32552289 183.07191662 57.44641878 166.61566871 51.47143555 150.1875 C50.64239247 147.90672858 49.81526461 145.62526891 48.98828125 143.34375 C48.62564934 142.34958069 48.62564934 142.34958069 48.25569153 141.33532715 C46.7408426 137.15348162 45.3069217 132.94893698 43.90397644 128.72814941 C43.54658984 127.65364784 43.18920324 126.57914627 42.82098675 125.47208405 C42.55006112 124.65629631 42.27913549 123.84050858 42 123 C41.97661071 139.4205756 41.95899123 155.84114577 41.94818783 172.26173401 C41.94303767 179.88657184 41.93601942 187.5113993 41.92456055 195.13623047 C41.91457454 201.7841893 41.90813726 208.43214061 41.90591151 215.08010674 C41.90461105 218.59817307 41.90156737 222.11621792 41.89426994 225.63427734 C41.88617821 229.56738682 41.88601138 233.50047553 41.88647461 237.43359375 C41.8810817 239.17176613 41.8810817 239.17176613 41.87557983 240.9450531 C41.88144166 245.54864891 41.92407705 250.0350435 42.56959534 254.59790039 C43 258 43 258 42 261 C34.09497469 262.44500463 26.15157173 263.56274552 18.1875 264.625 C17.19741943 264.76010986 16.20733887 264.89521973 15.18725586 265.03442383 C10.07590576 265.70487085 5.15485439 266.15816848 0 266 C-1.17285947 263.65428107 -1.12530662 262.28202953 -1.12584114 259.66773987 C-1.12844889 258.75234153 -1.13105664 257.83694319 -1.13374341 256.8938055 C-1.13151268 255.88156697 -1.12928196 254.86932844 -1.12698364 253.82641602 C-1.12854363 252.75622758 -1.13010362 251.68603914 -1.13171089 250.58342075 C-1.13572067 246.97356885 -1.13253131 243.36375851 -1.12939453 239.75390625 C-1.13074858 237.17560807 -1.13252853 234.59731007 -1.13470459 232.01901245 C-1.13916016 225.72868848 -1.13818676 219.43837642 -1.13529195 213.14805198 C-1.13303708 208.03751258 -1.13272576 202.92697652 -1.13381577 197.81643677 C-1.133969 197.09014055 -1.13412223 196.36384433 -1.13428011 195.61553913 C-1.13459982 194.14025966 -1.13492403 192.66498019 -1.1352527 191.18970072 C-1.13810687 177.34351724 -1.13482146 163.49734037 -1.12945233 149.65115798 C-1.12498435 137.7605994 -1.1257603 125.87005059 -1.13037109 113.97949219 C-1.13571797 100.18415001 -1.13783218 86.38881364 -1.13475883 72.59347057 C-1.13444027 71.12350146 -1.1341259 69.65353235 -1.13381577 68.18356323 C-1.13366149 67.46023774 -1.13350721 66.73691225 -1.13334826 65.99166781 C-1.13248345 60.88499759 -1.13394523 55.77833103 -1.13629532 50.67166138 C-1.13938652 43.80336964 -1.13719783 36.9350967 -1.13140106 30.06680679 C-1.13007361 27.53915564 -1.13046733 25.01150294 -1.13266373 22.48385239 C-1.1353758 19.04707488 -1.13199335 15.6103576 -1.12698364 12.17358398 C-1.12921436 11.16134545 -1.13144509 10.14910692 -1.13374341 9.1061945 C-1.13113566 8.19079616 -1.12852791 7.27539782 -1.12584114 6.33226013 C-1.12567879 5.53820991 -1.12551644 4.74415968 -1.12534916 3.92604733 C-1 2 -1 2 0 0 Z " fill="#E2131F" transform="translate(98,369)"/>
<path d="M0 0 C12.7968039 10.88385906 20.78820125 27.01066896 22.32958984 43.72021484 C22.46900073 48.39288319 22.45237721 53.04747347 22.32958984 57.72021484 C12.01276621 59.7280534 1.6919415 61.70985307 -8.67041016 63.47021484 C-9.40437012 63.59759033 -10.13833008 63.72496582 -10.89453125 63.85620117 C-14.52390628 64.46166273 -17.98947328 64.86400144 -21.67041016 64.72021484 C-21.76837891 63.54845703 -21.86634766 62.37669922 -21.96728516 61.16943359 C-23.00059099 45.20397404 -23.00059099 45.20397404 -31.17041016 32.09521484 C-37.26731918 27.3008273 -45.29925693 28.13481006 -52.67041016 28.72021484 C-57.26682418 29.95014214 -59.91047305 31.86028602 -63.04541016 35.40771484 C-67.24327235 43.96489547 -67.73821359 53.15592132 -65.49462891 62.35302734 C-63.0886513 69.26308626 -58.93447369 74.7658021 -53.67041016 79.72021484 C-53.67041016 80.38021484 -53.67041016 81.04021484 -53.67041016 81.72021484 C-53.10451172 81.97287109 -52.53861328 82.22552734 -51.95556641 82.48583984 C-49.35741679 83.88928476 -47.35481222 85.55151196 -45.10791016 87.47021484 C-39.95309004 91.76705148 -34.60405752 95.72148331 -29.17041016 99.65771484 C-22.74901668 104.33003947 -16.70376563 109.09542456 -10.94384766 114.57177734 C-8.89937455 116.50383956 -6.79175987 118.26319235 -4.60791016 120.03271484 C10.8382799 133.58366685 21.13440871 154.45072156 22.47045898 174.87353516 C23.3267798 195.15911003 20.07258762 214.48682927 6.14208984 230.15771484 C-3.60829753 240.47602069 -17.82728415 247.08918471 -32.09887695 247.84960938 C-32.9307251 247.8507373 -33.76257324 247.85186523 -34.61962891 247.85302734 C-36.01665039 247.85496094 -36.01665039 247.85496094 -37.44189453 247.85693359 C-38.40417969 247.85306641 -39.36646484 247.84919922 -40.35791016 247.84521484 C-41.30085937 247.84908203 -42.24380859 247.85294922 -43.21533203 247.85693359 C-49.42434571 247.84839887 -55.5059256 247.45850668 -61.67041016 246.72021484 C-61.67041016 246.06021484 -61.67041016 245.40021484 -61.67041016 244.72021484 C-62.84603516 244.55521484 -64.02166016 244.39021484 -65.23291016 244.22021484 C-81.06823505 240.59076832 -95.47981166 228.89995817 -104.18212891 215.40380859 C-112.52804765 200.3548685 -115.0833887 185.62238427 -115.67041016 168.72021484 C-110.37619418 167.02189657 -105.42760253 166.26447838 -99.89306641 165.86865234 C-99.08171738 165.8048941 -98.27036835 165.74113586 -97.43443298 165.67544556 C-94.867726 165.47528972 -92.30039562 165.28509551 -89.73291016 165.09521484 C-87.98220818 164.96045825 -86.23155639 164.82504806 -84.48095703 164.68896484 C-80.21131774 164.35848838 -75.94109081 164.03693769 -71.67041016 163.72021484 C-69.17282129 167.46659814 -69.26040686 170.61847975 -69.10791016 174.97021484 C-68.7972504 182.88860275 -68.7972504 182.88860275 -67.67041016 190.72021484 C-67.01041016 191.05021484 -66.35041016 191.38021484 -65.67041016 191.72021484 C-65.25791016 192.62771484 -64.84541016 193.53521484 -64.42041016 194.47021484 C-61.36032018 200.15323908 -57.71346511 202.58767114 -51.73291016 204.53271484 C-43.50844184 206.66543837 -37.10561639 205.88548744 -29.67041016 201.72021484 C-24.78892439 196.47261765 -23.70788083 190.31739955 -23.63525391 183.34521484 C-24.14301015 171.85258564 -27.90311378 161.28339323 -36.35400391 153.08740234 C-37.67041016 151.72021484 -37.67041016 151.72021484 -37.67041016 149.72021484 C-38.33041016 149.72021484 -38.99041016 149.72021484 -39.67041016 149.72021484 C-41.36659318 148.08359677 -43.02920289 146.41195781 -44.67041016 144.72021484 C-51.12446985 139.02479024 -58.02917546 133.96566582 -64.98291016 128.90771484 C-73.24078546 122.88521281 -81.08172813 116.56411906 -88.67041016 109.72021484 C-89.43611328 109.04990234 -90.20181641 108.37958984 -90.99072266 107.68896484 C-104.26248966 95.4060746 -112.00861025 77.84357795 -112.99462891 59.93505859 C-113.61076581 41.22080611 -109.46309275 21.99229429 -96.53540039 7.74267578 C-72.07998534 -17.24568539 -28.15278518 -21.56926336 0 0 Z " fill="#E1131F" transform="translate(905.67041015625,377.27978515625)"/>
<path d="M0 0 C0.33 0 0.66 0 1 0 C1 14.52 1 29.04 1 44 C-34.145 44.495 -34.145 44.495 -70 45 C-70.020625 53.559375 -70.04125 62.11875 -70.0625 70.9375 C-70.071604 73.64316162 -70.08070801 76.34882324 -70.09008789 79.13647461 C-70.09300685 81.26676382 -70.09555545 83.39705358 -70.09765625 85.52734375 C-70.10277222 86.64500122 -70.10788818 87.76265869 -70.11315918 88.91418457 C-70.11328003 89.96980591 -70.11340088 91.02542725 -70.11352539 92.11303711 C-70.115746 93.03459091 -70.11796661 93.95614471 -70.12025452 94.90562439 C-70.2337198 96.98808362 -70.2337198 96.98808362 -69 98 C-67.2507128 98.09365006 -65.49763746 98.11744438 -63.74584961 98.11352539 C-62.06421974 98.11341209 -62.06421974 98.11341209 -60.34861755 98.11329651 C-59.1288472 98.10813522 -57.90907684 98.10297394 -56.65234375 98.09765625 C-55.41078018 98.0962413 -54.16921661 98.09482635 -52.89002991 98.09336853 C-49.58394509 98.08870591 -46.27792854 98.07971497 -42.97186279 98.06866455 C-39.60038861 98.05844827 -36.22890718 98.05381574 -32.85742188 98.04882812 C-26.23824261 98.03862279 -19.61918347 98.01905106 -13 98 C-13 112.85 -13 127.7 -13 143 C-16.42988038 143.85747009 -18.84742996 144.12179183 -22.31933594 144.11352539 C-23.93267822 144.11334412 -23.93267822 144.11334412 -25.57861328 144.11315918 C-26.70251465 144.10804321 -27.82641602 144.10292725 -28.984375 144.09765625 C-30.02223145 144.09664917 -31.06008789 144.09564209 -32.12939453 144.09460449 C-36.00294094 144.08937608 -39.87647159 144.07541481 -43.75 144.0625 C-52.4125 144.041875 -61.075 144.02125 -70 144 C-70.33 162.48 -70.66 180.96 -71 200 C-67.1808929 201.2730357 -63.77225529 200.96415638 -59.8125 200.75 C-58.93625977 200.70625244 -58.06001953 200.66250488 -57.15722656 200.61743164 C-45.07601299 199.96404365 -33.01246729 198.97662145 -20.95239258 198.01660156 C-20.10137466 197.95011917 -19.25035675 197.88363678 -18.37355042 197.81513977 C-16.77601879 197.6902892 -15.17869524 197.56273114 -13.58164978 197.43180847 C-8.37341751 197.02785071 -3.22411032 196.94858668 2 197 C2.02464513 203.1055471 2.04283371 209.21106551 2.05493164 215.31665039 C2.05997288 217.39543156 2.06680574 219.47420916 2.07543945 221.55297852 C2.08751422 224.53402586 2.09323024 227.51502649 2.09765625 230.49609375 C2.10281754 231.43150497 2.10797882 232.3669162 2.11329651 233.33067322 C2.11337204 234.19149002 2.11344757 235.05230682 2.11352539 235.93920898 C2.115746 236.70087875 2.11796661 237.46254852 2.12025452 238.24729919 C2 240 2 240 1 241 C-0.35286514 241.19164922 -1.71465272 241.32090956 -3.07713318 241.42396545 C-3.95595657 241.49265335 -4.83477997 241.56134125 -5.74023438 241.6321106 C-6.71210693 241.70332123 -7.68397949 241.77453186 -8.68530273 241.84790039 C-9.70326431 241.92607498 -10.72122589 242.00424957 -11.77003479 242.08479309 C-15.15755621 242.34367503 -18.54554157 242.5958228 -21.93359375 242.84765625 C-24.28477663 243.02529548 -26.63593706 243.20323212 -28.98707581 243.38145447 C-33.92923758 243.75504608 -38.8716296 244.12538388 -43.81420898 244.4934082 C-50.13272875 244.96409029 -56.45066387 245.4421428 -62.76844692 245.92260075 C-67.63171195 246.29171434 -72.49524762 246.6571554 -77.35887337 247.02148247 C-79.68682854 247.19624962 -82.01470449 247.37207561 -84.34249687 247.54899788 C-87.61145101 247.7968364 -90.88073368 248.03979141 -94.15014648 248.28149414 C-95.5806282 248.39134644 -95.5806282 248.39134644 -97.04000854 248.50341797 C-97.94421036 248.56928604 -98.84841217 248.63515411 -99.78001404 248.70301819 C-100.93675959 248.78956209 -100.93675959 248.78956209 -102.11687374 248.87785435 C-106.41086096 249.05977211 -110.70284058 249.02238821 -115 249 C-115.02279401 217.69509877 -115.04050006 186.39019972 -115.05106533 155.08529217 C-115.05231609 151.39263617 -115.05361041 147.69998019 -115.05493164 144.00732422 C-115.05519395 143.27215761 -115.05545626 142.53699099 -115.05572652 141.7795466 C-115.06008232 129.86308692 -115.06796937 117.94663205 -115.0771528 106.03017522 C-115.08649184 93.81021177 -115.09205614 81.59025084 -115.09408849 69.37028396 C-115.0954632 61.82496821 -115.09981097 54.27966605 -115.10791647 46.73435448 C-115.11380848 40.95655768 -115.11445832 35.17876966 -115.11310768 29.40097046 C-115.113384 27.02490022 -115.115389 24.64882949 -115.11920547 22.2727623 C-115.124143 19.04169564 -115.12299804 15.81068824 -115.12025452 12.57962036 C-115.12316736 11.62827276 -115.1260802 10.67692517 -115.12908131 9.69674885 C-115.12709026 8.83585144 -115.12509921 7.97495404 -115.12304783 7.08796883 C-115.12342755 6.34143866 -115.12380727 5.59490849 -115.1241985 4.82575619 C-115 3 -115 3 -114 1 C-99.87452252 0.9766296 -85.74904804 0.95906697 -71.62355518 0.94818783 C-65.0647038 0.9429667 -58.5058654 0.93588297 -51.94702148 0.92456055 C-45.61875468 0.91370439 -39.29050036 0.90771735 -32.96222496 0.90512276 C-30.54648326 0.90327344 -28.13074226 0.89966227 -25.71500587 0.89426994 C-22.33448426 0.88702338 -18.95401444 0.8860106 -15.57348633 0.88647461 C-14.57223221 0.88287933 -13.57097809 0.87928406 -12.53938293 0.87557983 C-11.61536682 0.8769545 -10.69135071 0.87832916 -9.73933411 0.87974548 C-8.94013959 0.87882369 -8.14094507 0.8779019 -7.31753254 0.87695217 C-4.80150261 1.01053909 -2.45617451 1.45111559 0 2 C0 1.34 0 0.68 0 0 Z " fill="#E2131F" transform="translate(382,368)"/>
<path d="M0 0 C15.49839856 -0.02332946 30.99679582 -0.04097941 46.49520779 -0.05181217 C53.69090295 -0.05697503 60.88658722 -0.06401753 68.08227539 -0.07543945 C74.35184694 -0.0853866 80.62141061 -0.0918535 86.89098984 -0.09408849 C90.21265621 -0.09539555 93.53429466 -0.09899997 96.85595512 -0.10573006 C100.55819947 -0.11293628 104.26039631 -0.11399112 107.96264648 -0.11352539 C109.07178909 -0.11712067 110.1809317 -0.12071594 111.32368469 -0.12442017 C112.82767319 -0.12235817 112.82767319 -0.12235817 114.36204529 -0.12025452 C115.23867042 -0.12117631 116.11529554 -0.1220981 117.01848507 -0.12304783 C119 0 119 0 120 1 C120.101137 4.01808063 120.13968909 7.01280513 120.1328125 10.03125 C120.13376923 10.93750122 120.13472595 11.84375244 120.13571167 12.77746582 C120.13639353 14.69751047 120.13453882 16.61755741 120.13037109 18.53759766 C120.12502292 21.48735704 120.13031588 24.43696414 120.13671875 27.38671875 C120.13605797 29.24739617 120.13477681 31.1080735 120.1328125 32.96875 C120.13483673 33.85727661 120.13686096 34.74580322 120.13894653 35.66125488 C120.11494988 41.88505012 120.11494988 41.88505012 119 43 C116.73008113 43.09439978 114.45718033 43.11742226 112.18530273 43.11352539 C111.11706772 43.11374443 111.11706772 43.11374443 110.0272522 43.1139679 C107.66266888 43.1132687 105.29816339 43.10547606 102.93359375 43.09765625 C101.29834537 43.09579209 99.66309643 43.09436818 98.02784729 43.09336853 C93.71565215 43.08954318 89.40349048 43.07971275 85.09130859 43.06866455 C79.9218032 43.05665627 74.75228664 43.05204827 69.5827713 43.04621124 C61.72182423 43.036501 53.86095065 43.01734458 46 43 C46 61.15 46 79.3 46 98 C50.455 97.505 50.455 97.505 55 97 C56.8081728 96.92513798 58.61826309 96.8816487 60.42797852 96.88647461 C61.86845299 96.88658791 61.86845299 96.88658791 63.33802795 96.88670349 C64.34151779 96.89186478 65.34500763 96.89702606 66.37890625 96.90234375 C67.43158188 96.9037587 68.48425751 96.90517365 69.5688324 96.90663147 C72.90008499 96.91218704 76.23126804 96.92473112 79.5625 96.9375 C81.8339834 96.94252075 84.10546786 96.94708265 86.37695312 96.95117188 C91.9179921 96.96214188 97.45899108 96.97883517 103 97 C103.81386532 99.83407137 104.10348768 102.27444356 104.02172852 105.21777344 C104.00130493 106.04970215 103.98088135 106.88163086 103.95983887 107.73876953 C103.9331311 108.60356934 103.90642334 109.46836914 103.87890625 110.359375 C103.85824097 111.16133301 103.83757568 111.96329102 103.81628418 112.78955078 C103.7377017 115.77653142 103.64953148 118.7632536 103.5625 121.75 C103.2840625 131.77375 103.2840625 131.77375 103 142 C84.19 142 65.38 142 46 142 C46.01160156 148.77402344 46.02320313 155.54804687 46.03515625 162.52734375 C46.0402629 166.80664158 46.04507667 171.08593567 46.04882812 175.36523438 C46.05481697 182.16464005 46.06191838 188.96403232 46.07543945 195.76342773 C46.08626696 201.24229136 46.09227654 206.72114062 46.09487724 212.20001411 C46.09673174 214.29529611 46.10035282 216.39057728 46.10573006 218.4858532 C46.11293868 221.40977584 46.11399102 224.33363833 46.11352539 227.25756836 C46.11712067 228.1329425 46.12071594 229.00831665 46.12442017 229.91021729 C46.11405216 235.88594784 46.11405216 235.88594784 45 237 C43.62390118 237.09795311 42.24286118 237.12798088 40.86328125 237.12939453 C39.54686646 237.13412277 39.54686646 237.13412277 38.20385742 237.13894653 C37.24970947 237.1369223 36.29556152 237.13489807 35.3125 237.1328125 C33.85324097 237.13424759 33.85324097 237.13424759 32.36450195 237.13571167 C30.303222 237.13639358 28.24193992 237.13453853 26.18066406 237.13037109 C23.01362312 237.125023 19.846724 237.13031572 16.6796875 237.13671875 C14.68229135 237.13605797 12.68489529 237.13477681 10.6875 237.1328125 C9.73335205 237.13483673 8.7792041 237.13686096 7.79614258 237.13894653 C6.91853271 237.13579437 6.04092285 237.13264221 5.13671875 237.12939453 C4.36030029 237.12859894 3.58388184 237.12780334 2.78393555 237.12698364 C1 237 1 237 0 236 C-0.09801911 232.96597636 -0.12991072 229.95470393 -0.12025452 226.92027283 C-0.12110894 225.95570005 -0.12196337 224.99112726 -0.12284368 223.997325 C-0.12450142 220.73900229 -0.11897233 217.48073014 -0.11352539 214.22241211 C-0.11324356 211.89717103 -0.11340118 209.57192987 -0.1139679 207.24668884 C-0.11425602 200.9122316 -0.10835695 194.57779312 -0.10139394 188.24334025 C-0.09579342 182.30072885 -0.09477212 176.35811821 -0.09374207 170.41550452 C-0.09155124 158.64182693 -0.08489033 146.86815626 -0.07543945 135.09448242 C-0.06626612 123.65470413 -0.0591849 112.21492771 -0.05493164 100.77514648 C-0.05466892 100.07047825 -0.05440619 99.36581002 -0.05413551 98.6397882 C-0.05283051 95.10481803 -0.05156679 91.56984785 -0.05032361 88.03487766 C-0.03995004 58.68991398 -0.02225678 29.34495706 0 0 Z " fill="#E2131F" transform="translate(562,369)"/>
<path d="M0 0 C1.06293274 -0.00137466 2.12586548 -0.00274933 3.2210083 -0.00416565 C4.97751205 0.00122726 4.97751205 0.00122726 6.76950073 0.00672913 C7.99874268 0.0065831 9.22798462 0.00643707 10.49447632 0.00628662 C13.87030712 0.00686498 17.24607718 0.01188915 20.62189722 0.01886058 C24.14797443 0.02510093 27.6740524 0.02569846 31.20013428 0.02688599 C37.87952694 0.02999728 44.55890329 0.03820797 51.23828876 0.04823548 C58.84157395 0.05940285 66.44485991 0.06490864 74.04815125 0.06993091 C89.69079153 0.08039074 105.33341551 0.0979863 120.9760437 0.12025452 C121.14127684 2.9907888 121.30495118 5.861398 121.46774292 8.73207092 C121.51432541 9.53854568 121.5609079 10.34502045 121.60890198 11.17593384 C121.95360416 17.28561007 122.12946508 23.37518467 122.1010437 29.49525452 C122.10491089 30.38212952 122.10877808 31.26900452 122.11276245 32.18275452 C122.10695638 36.02637382 122.03383063 39.40276898 120.9760437 43.12025452 C116.8564589 44.2840561 112.95349086 44.14875662 108.7104187 43.99916077 C107.91702087 43.97554977 107.12362305 43.95193878 106.30618286 43.9276123 C103.77927687 43.85121523 101.25269603 43.76708839 98.7260437 43.68275452 C97.00991363 43.62950982 95.29376782 43.57676959 93.5776062 43.52455139 C89.37688059 43.39563264 85.17642978 43.25978226 80.9760437 43.12025452 C80.97696549 44.11400306 80.97788729 45.1077516 80.97883701 46.13161373 C81.00100382 70.27462958 81.01745387 94.41764412 81.02785587 118.56066799 C81.03301947 130.23588866 81.04006339 141.91110261 81.05148315 153.58631897 C81.06142804 163.75848125 81.06789666 173.93063867 81.0701322 184.10280567 C81.07143964 189.49244701 81.07452759 194.88207445 81.08177376 200.27171135 C81.08853089 205.33836886 81.09066129 210.40500666 81.08915138 215.47166824 C81.08942785 217.33697809 81.09143478 219.20228856 81.09524918 221.06759453 C81.10018164 223.6027456 81.09904366 226.13782103 81.09629822 228.67297363 C81.09921106 229.42101381 81.1021239 230.16905399 81.10512501 230.93976206 C81.09016491 236.00613331 81.09016491 236.00613331 79.9760437 237.12025452 C78.62620622 237.24210595 77.27029669 237.29792282 75.91525269 237.32557678 C75.05443588 237.345522 74.19361908 237.36546722 73.30671692 237.38601685 C72.37130569 237.40272934 71.43589447 237.41944183 70.47213745 237.43666077 C69.51912247 237.45744186 68.56610748 237.47822296 67.58421326 237.49963379 C64.5273996 237.56523629 61.47049714 237.62406369 58.4135437 237.68275452 C56.34647707 237.72592958 54.27941956 237.76954352 52.21237183 237.81361389 C47.13368775 237.92092853 42.054914 238.02216542 36.9760437 238.12025452 C36.97273355 237.13865703 36.96942341 236.15705954 36.96601295 235.14571667 C36.88509846 211.28568212 36.79280752 187.42571238 36.68851662 163.56576824 C36.63834748 152.02738464 36.5919051 140.4890083 36.5541687 128.95057678 C36.52127679 118.89628368 36.48146118 108.84204621 36.43325365 98.78781444 C36.40796076 93.46183395 36.38618775 88.1358905 36.37269974 82.80986595 C36.35990466 77.80059621 36.33787802 72.79145332 36.30866051 67.78225327 C36.2995647 65.9403743 36.29388986 64.0984749 36.29183006 62.25657463 C36.28852162 59.74827659 36.27308304 57.2403413 36.2545166 54.7321167 C36.25645134 53.9976841 36.25838607 53.2632515 36.26037943 52.50656337 C36.219424 48.82382514 36.07648722 47.27091979 33.9760437 44.12025452 C31.41886312 43.87747206 29.10602563 43.819896 26.5541687 43.89759827 C25.81656311 43.90658646 25.07895752 43.91557465 24.31900024 43.92483521 C21.95420849 43.95491411 19.59042268 44.0046521 17.2260437 44.05775452 C14.87601069 44.10570946 12.52625628 44.14909718 10.17593384 44.17996216 C8.71323378 44.19958152 7.25062187 44.22905212 5.7883606 44.26989746 C1.46509681 44.33299594 -2.0768013 43.93869545 -6.0239563 42.12025452 C-7.31882645 38.23564405 -7.1472167 34.56141496 -7.12161255 30.51478577 C-7.1201976 29.6755809 -7.11878265 28.83637604 -7.11732483 27.97174072 C-7.11172845 25.29204236 -7.09917665 22.61242762 -7.0864563 19.93275452 C-7.08144083 18.11569843 -7.076878 16.29864104 -7.07278442 14.48158264 C-7.06176021 10.02777439 -7.04449808 5.57402863 -7.0239563 1.12025452 C-4.51220465 -0.13562131 -2.81158729 -0.00279482 0 0 Z " fill="#E21420" transform="translate(415.0239562988281,368.87974548339844)"/>
<path d="M0 0 C14.52 0 29.04 0 44 0 C44.02258478 30.81234682 44.04049792 61.624691 44.05106533 92.43704408 C44.05231611 96.07090375 44.05361042 99.7047634 44.05493164 103.33862305 C44.05519395 104.06208951 44.05545626 104.78555598 44.05572652 105.53094567 C44.06008332 117.26055168 44.06797092 128.99015282 44.0771528 140.71975594 C44.08648906 152.74648244 44.09205555 164.77320638 44.09408849 176.79993635 C44.09534006 183.55891439 44.09836183 190.31788223 44.10573006 197.07685661 C44.11248603 203.43048956 44.11461783 209.7841068 44.11310768 216.137743 C44.1133842 218.47714447 44.11539182 220.81654644 44.11920547 223.15594482 C44.12413612 226.3348128 44.12300063 229.51362043 44.12025452 232.69248962 C44.12316736 233.63118627 44.1260802 234.56988292 44.12908131 235.53702492 C44.11412121 241.88587879 44.11412121 241.88587879 43 243 C41.65455673 243.09785341 40.30407437 243.12797985 38.95507812 243.12939453 C38.09748901 243.13254669 37.2398999 243.13569885 36.35632324 243.13894653 C35.42404907 243.1369223 34.4917749 243.13489807 33.53125 243.1328125 C32.10528503 243.13424759 32.10528503 243.13424759 30.6505127 243.13571167 C28.63631118 243.13639357 26.62210748 243.13453862 24.60791016 243.13037109 C21.51329645 243.12502298 18.4188279 243.13031577 15.32421875 243.13671875 C13.37239551 243.13605797 11.42057236 243.13477681 9.46875 243.1328125 C8.07033875 243.13584885 8.07033875 243.13584885 6.64367676 243.13894653 C5.78608765 243.13579437 4.92849854 243.13264221 4.04492188 243.12939453 C3.28626831 243.12859894 2.52761475 243.12780334 1.74597168 243.12698364 C0 243 0 243 -1 242 C-1.1002657 238.92000489 -1.13437613 235.86235357 -1.12698364 232.78187561 C-1.12854363 231.80237975 -1.13010362 230.82288389 -1.13171089 229.81370634 C-1.13572549 226.50477692 -1.13252946 223.19589272 -1.12939453 219.88696289 C-1.13074838 217.5255582 -1.13252821 215.16415371 -1.13470459 212.80274963 C-1.13880502 207.03834185 -1.13818555 201.27394863 -1.13529195 195.50954039 C-1.1330379 190.82613189 -1.1327254 186.14272704 -1.13381577 181.45931816 C-1.133969 180.7939444 -1.13412223 180.12857064 -1.13428011 179.44303403 C-1.13459982 178.09152703 -1.13492403 176.74002002 -1.1352527 175.38851302 C-1.1381077 162.70022994 -1.13482027 150.01195407 -1.12945233 137.32367217 C-1.1249853 126.42744775 -1.12575936 115.53123399 -1.13037109 104.63500977 C-1.13571828 91.99514336 -1.13783192 79.35528328 -1.13475883 66.71541589 C-1.13444027 65.36844313 -1.1341259 64.02147037 -1.13381577 62.6744976 C-1.13366149 62.01168755 -1.13350721 61.3488775 -1.13334826 60.66598229 C-1.13248346 55.98662543 -1.13394521 51.30727258 -1.13629532 46.62791634 C-1.13917471 40.33335957 -1.13719706 34.038823 -1.13140106 27.74426842 C-1.13007378 25.42786315 -1.13046705 23.11145619 -1.13266373 20.79505157 C-1.13537648 17.64504709 -1.1319925 14.49510828 -1.12698364 11.34510803 C-1.12921436 10.41778824 -1.13144509 9.49046846 -1.13374341 8.53504807 C-1.1141499 2.22829979 -1.1141499 2.22829979 0 0 Z " fill="#E1131F" transform="translate(711,369)"/>
<path d="M0 0 C0.59342534 9.79354574 1.1705837 19.55930951 1.125 29.375 C1.12886719 30.261875 1.13273438 31.14875 1.13671875 32.0625 C1.13091268 35.9061193 1.05778693 39.28251446 0 43 C-12.93523334 46.23380833 -26.67180772 43.37022756 -40 43 C-40 106.69 -40 170.38 -40 236 C-54.19 236 -68.38 236 -83 236 C-83 172.31 -83 108.62 -83 43 C-82.67 43 -82.34 43 -82 43 C-81.84622084 67.73834768 -81.69818428 92.4767239 -81.5570364 117.21514702 C-81.49136834 128.70090402 -81.42380137 140.18664405 -81.35180664 151.67236328 C-81.28908112 161.68007623 -81.22987504 171.68780265 -81.17494446 181.69556153 C-81.14571897 186.99749924 -81.11469776 192.29941306 -81.07946587 197.60131454 C-81.0463928 202.58669567 -81.01800829 207.57208102 -80.99329376 212.55751038 C-80.98336065 214.39177098 -80.97168215 216.22602304 -80.95816994 218.06026077 C-80.94004278 220.55562703 -80.92807221 223.05094745 -80.91770935 225.5463562 C-80.91090556 226.27981069 -80.90410177 227.01326519 -80.89709181 227.76894557 C-80.88587879 232.77175758 -80.88587879 232.77175758 -82 235 C-68.8 235 -55.6 235 -42 235 C-42 170.98 -42 106.96 -42 41 C-28.8 40.67 -15.6 40.34 -2 40 C-2 27.79 -2 15.58 -2 3 C-35.66 3 -69.32 3 -104 3 C-104 2.67 -104 2.34 -104 2 C-69.31443645 0.60830392 -34.71631053 -0.3336626 0 0 Z " fill="#DE0C11" transform="translate(536,369)"/>
<path d="M0 0 C0.33 0 0.66 0 1 0 C1 14.52 1 29.04 1 44 C-34.145 44.495 -34.145 44.495 -70 45 C-70.020625 53.559375 -70.04125 62.11875 -70.0625 70.9375 C-70.071604 73.64316162 -70.08070801 76.34882324 -70.09008789 79.13647461 C-70.09300685 81.26676382 -70.09555545 83.39705358 -70.09765625 85.52734375 C-70.10277222 86.64500122 -70.10788818 87.76265869 -70.11315918 88.91418457 C-70.11328003 89.96980591 -70.11340088 91.02542725 -70.11352539 92.11303711 C-70.115746 93.03459091 -70.11796661 93.95614471 -70.12025452 94.90562439 C-70.2337198 96.98808362 -70.2337198 96.98808362 -69 98 C-67.2507128 98.09365006 -65.49763746 98.11744438 -63.74584961 98.11352539 C-62.06421974 98.11341209 -62.06421974 98.11341209 -60.34861755 98.11329651 C-59.1288472 98.10813522 -57.90907684 98.10297394 -56.65234375 98.09765625 C-55.41078018 98.0962413 -54.16921661 98.09482635 -52.89002991 98.09336853 C-49.58394509 98.08870591 -46.27792854 98.07971497 -42.97186279 98.06866455 C-39.60038861 98.05844827 -36.22890718 98.05381574 -32.85742188 98.04882812 C-26.23824261 98.03862279 -19.61918347 98.01905106 -13 98 C-13 112.85 -13 127.7 -13 143 C-16.42988038 143.85747009 -18.84742996 144.12179183 -22.31933594 144.11352539 C-23.93267822 144.11334412 -23.93267822 144.11334412 -25.57861328 144.11315918 C-26.70251465 144.10804321 -27.82641602 144.10292725 -28.984375 144.09765625 C-30.02223145 144.09664917 -31.06008789 144.09564209 -32.12939453 144.09460449 C-36.00294094 144.08937608 -39.87647159 144.07541481 -43.75 144.0625 C-52.4125 144.041875 -61.075 144.02125 -70 144 C-70.33 162.48 -70.66 180.96 -71 200 C-67.58248347 201.13917218 -64.96512063 201.11338481 -61.36328125 201.09765625 C-60.06455078 201.09443359 -58.76582031 201.09121094 -57.42773438 201.08789062 C-56.05598892 201.07953531 -54.68424413 201.07107037 -53.3125 201.0625 C-51.92903805 201.05748335 -50.54557437 201.05292073 -49.16210938 201.04882812 C-45.77469605 201.03702529 -42.38736967 201.02056019 -39 201 C-39 201.66 -39 202.32 -39 203 C-41.66638421 203.1728212 -44.33293853 203.33822742 -47 203.5 C-48.08667969 203.57154297 -48.08667969 203.57154297 -49.1953125 203.64453125 C-57.16606649 204.11737259 -64.96074813 204 -73 204 C-73 183.21 -73 162.42 -73 141 C-53.86 141 -34.72 141 -15 141 C-15 127.8 -15 114.6 -15 101 C-19.10308594 101.01160156 -23.20617187 101.02320313 -27.43359375 101.03515625 C-30.69687621 101.04158324 -33.9601569 101.04700745 -37.22344208 101.05175018 C-40.67281862 101.05703976 -44.12217075 101.06411301 -47.5715332 101.07543945 C-51.52555043 101.08834235 -55.47955756 101.09322918 -59.43359375 101.09765625 C-61.29605995 101.10539818 -61.29605995 101.10539818 -63.19615173 101.11329651 C-64.90781273 101.11340981 -64.90781273 101.11340981 -66.65405273 101.11352539 C-67.664431 101.115746 -68.67480927 101.11796661 -69.71580505 101.12025452 C-72 101 -72 101 -73 100 C-73.09376053 98.18944975 -73.1174411 96.37522799 -73.11352539 94.56225586 C-73.11344986 93.40112778 -73.11337433 92.23999969 -73.11329651 91.04368591 C-73.10813522 89.780168 -73.10297394 88.51665009 -73.09765625 87.21484375 C-73.0962413 85.92888809 -73.09482635 84.64293243 -73.09336853 83.31800842 C-73.08954418 79.89356557 -73.07971462 76.46916491 -73.06866455 73.04473877 C-73.05844864 69.55261811 -73.05387053 66.06049066 -73.04882812 62.56835938 C-73.03809227 55.71222222 -73.02101684 48.85611313 -73 42 C-69.54676011 40.84892004 -66.96711475 40.91857189 -63.32543945 40.97827148 C-62.31528778 40.9926828 -62.31528778 40.9926828 -61.284729 41.00738525 C-59.06080563 41.04034246 -56.83708072 41.08068709 -54.61328125 41.12109375 C-53.070579 41.14539808 -51.52786942 41.16924149 -49.9851532 41.19264221 C-45.92609306 41.25545202 -41.86716271 41.32452743 -37.80822754 41.39489746 C-32.93743198 41.47804286 -28.06651086 41.55342468 -23.19561005 41.63010406 C-15.79695994 41.74744744 -8.39853851 41.87466641 -1 42 C-1 29.46 -1 16.92 -1 4 C-2.32 4 -3.64 4 -5 4 C-5 3.34 -5 2.68 -5 2 C-3.35 2 -1.7 2 0 2 C0 1.34 0 0.68 0 0 Z " fill="#DD0E13" transform="translate(382,368)"/>
<path d="M0 0 C0.33 0 0.66 0 1 0 C1 76.89 1 153.78 1 233 C13.87 233 26.74 233 40 233 C40 233.33 40 233.66 40 234 C39.32420898 234.02505615 38.64841797 234.0501123 37.95214844 234.07592773 C34.8845832 234.19210742 31.81730842 234.31473437 28.75 234.4375 C27.68652344 234.47681641 26.62304688 234.51613281 25.52734375 234.55664062 C23.99013672 234.61948242 23.99013672 234.61948242 22.421875 234.68359375 C21.47924805 234.72025146 20.53662109 234.75690918 19.56542969 234.79467773 C17.24803091 234.98014903 15.23979744 235.41635178 13 236 C10.60561131 236.0930391 8.20869048 236.1299662 5.8125 236.125 C4.56082031 236.12757813 3.30914063 236.13015625 2.01953125 236.1328125 C-1 236 -1 236 -2 235 C-2.10081077 233.22488657 -2.13076901 231.4457264 -2.13371277 229.66775513 C-2.13798279 228.50753845 -2.14225281 227.34732178 -2.14665222 226.15194702 C-2.146194 224.86446564 -2.14573578 223.57698425 -2.14526367 222.25048828 C-2.14821363 220.8860261 -2.1515705 219.52156475 -2.15530396 218.15710449 C-2.16409673 214.4154769 -2.16630514 210.67387114 -2.16705489 206.93223429 C-2.16827913 203.76811979 -2.17271519 200.60401276 -2.1770342 197.43990123 C-2.18944657 188.09705591 -2.19072227 178.75422887 -2.18847656 169.41137695 C-2.18743889 165.0250942 -2.18804366 160.63881349 -2.18911946 156.25253081 C-2.20060995 104.14612867 -1.85804512 52.07903325 0 0 Z " fill="#DB0E13" transform="translate(712,376)"/>
<path d="M0 0 C0 82.83 0 165.66 0 251 C-0.99 250.67 -1.98 250.34 -3 250 C-2.67 168.49 -2.34 86.98 -2 3 C-14.54 3 -27.08 3 -40 3 C-40.33 2.34 -40.66 1.68 -41 1 C-27.28305684 0.04101271 -13.79703899 0 0 0 Z " fill="#D8060A" transform="translate(233,369)"/>
<path d="M0 0 C0.66 0 1.32 0 2 0 C2 78.21 2 156.42 2 237 C1.34 237 0.68 237 0 237 C-1.19432789 232.30512333 -1.13958003 227.7571745 -1.12698364 222.94865417 C-1.12932363 221.57863919 -1.12932363 221.57863919 -1.13171089 220.18094712 C-1.13570042 217.11955708 -1.1325391 214.05821659 -1.12939453 210.99682617 C-1.13074951 208.80220002 -1.13252998 206.6075741 -1.13470459 204.41294861 C-1.13926827 198.45008213 -1.13749351 192.48723293 -1.1343255 186.52436614 C-1.13179547 180.28474235 -1.13414133 174.04512006 -1.13571167 167.80549622 C-1.13764852 156.65168321 -1.13453787 145.49787654 -1.12945233 134.34406505 C-1.12498793 124.2400336 -1.12575789 114.13601366 -1.13037109 104.03198242 C-1.13572863 92.29223249 -1.13771116 80.55248926 -1.13475883 68.81273824 C-1.13320063 62.60078964 -1.13298972 56.38884895 -1.13629532 50.17690086 C-1.13918734 44.33369854 -1.13717381 38.49051788 -1.13140106 32.64731789 C-1.13008043 30.50436056 -1.13045574 28.36140142 -1.13266373 26.21844482 C-1.13540273 23.28970431 -1.13196042 20.36103289 -1.12698364 17.43229675 C-1.12921436 16.58743766 -1.13144509 15.74257858 -1.13374341 14.8721177 C-1.11716169 9.82892055 -0.72037714 4.99291812 0 0 Z " fill="#DD0A12" transform="translate(268,376)"/>
<path d="M0 0 C0.93540115 -0.00131927 1.87080231 -0.00263855 2.83454895 -0.0039978 C5.84546343 -0.00589507 8.85628265 0.00038652 11.8671875 0.0078125 C12.89522491 0.00869873 13.92326233 0.00958496 14.98245239 0.01049805 C33.58290059 0.02927052 52.15604903 0.41450763 70.7421875 1.1328125 C70.7421875 1.4628125 70.7421875 1.7928125 70.7421875 2.1328125 C40.11609836 3.74471193 9.41066571 3.1328125 -21.2578125 3.1328125 C-21.2578125 79.3628125 -21.2578125 155.5928125 -21.2578125 234.1328125 C-21.5878125 234.1328125 -21.9178125 234.1328125 -22.2578125 234.1328125 C-22.2578125 157.2428125 -22.2578125 80.3528125 -22.2578125 1.1328125 C-14.74236351 0.50652508 -7.4985076 -0.01733189 0 0 Z " fill="#D70206" transform="translate(585.2578125,368.8671875)"/>
<path d="M0 0 C0.86475952 0.00225586 1.72951904 0.00451172 2.6204834 0.00683594 C4.72225707 0.01264796 6.82402164 0.02161197 8.92578125 0.03125 C9.13431732 0.60896652 9.34285339 1.18668304 9.55770874 1.78190613 C11.73047758 7.80069539 13.90444349 13.81905129 16.07910156 19.8371582 C16.89028061 22.08249015 17.70115551 24.327932 18.51171875 26.57348633 C19.67758305 29.80318762 20.84454451 33.03249066 22.01171875 36.26171875 C22.37325043 37.26397995 22.7347821 38.26624115 23.10726929 39.2988739 C23.44747101 40.23947159 23.78767273 41.18006927 24.13818359 42.14916992 C24.43574554 42.97301682 24.7333075 43.79686371 25.03988647 44.64567566 C25.66503429 46.32909974 26.3355251 47.99601912 27.0375061 49.64888 C27.92578125 52.03125 27.92578125 52.03125 27.92578125 55.03125 C28.91578125 55.52625 28.91578125 55.52625 29.92578125 56.03125 C30.64762878 57.6688385 30.64762878 57.6688385 31.32495117 59.82836914 C31.58617264 60.64123886 31.8473941 61.45410858 32.11653137 62.29161072 C32.39776352 63.18666824 32.67899567 64.08172577 32.96875 65.00390625 C35.64163754 73.26318089 38.47366604 81.4446895 41.4765625 89.58984375 C41.86536591 90.64507233 42.25416931 91.7003009 42.65475464 92.7875061 C43.84680108 96.01550424 45.04230393 99.24220644 46.23828125 102.46875 C47.45553839 105.76072909 48.67184915 109.05305454 49.88725281 112.34571838 C50.63502795 114.37070951 51.38399235 116.39526201 52.13435364 118.41929626 C57.21295267 132.14933583 57.21295267 132.14933583 56.92578125 137.03125 C53.37912021 134.66680931 53.34967023 133.35395489 52.47558594 129.35839844 C51.4903501 125.1882084 49.98531052 121.1894252 48.55078125 117.15625 C48.23915039 116.27364502 47.92751953 115.39104004 47.60644531 114.48168945 C45.08846794 107.39349144 42.43033403 100.40144824 39.36328125 93.53125 C38.27377744 90.87854507 37.40633114 88.39503856 36.61328125 85.65625 C35.21803604 80.84302313 33.59847013 76.12835176 31.92578125 71.40625 C31.67658936 70.70193848 31.42739746 69.99762695 31.1706543 69.27197266 C28.66257506 62.226991 26.03347762 55.25520104 23.17578125 48.34375 C20.28106266 41.23143285 17.8586741 33.98885234 15.47729492 26.69116211 C13.45030542 20.50688584 11.23330002 14.45674614 8.7734375 8.4296875 C7.92578125 6.03125 7.92578125 6.03125 7.92578125 3.03125 C-3.29421875 3.03125 -14.51421875 3.03125 -26.07421875 3.03125 C-26.07421875 2.37125 -26.07421875 1.71125 -26.07421875 1.03125 C-17.36796212 0.35876673 -8.73250059 -0.04411854 0 0 Z " fill="#DA0B0F" transform="translate(130.07421875,368.96875)"/>
<path d="M0 0 C0.33 0 0.66 0 1 0 C1 12.87 1 25.74 1 39 C-17.81 39 -36.62 39 -56 39 C-56 70.02 -56 101.04 -56 133 C-68.21 133 -80.42 133 -93 133 C-93 132.67 -93 132.34 -93 132 C-81.45 132 -69.9 132 -58 132 C-58 100.65 -58 69.3 -58 37 C-38.86 37 -19.72 37 0 37 C0 24.79 0 12.58 0 0 Z " fill="#DC0E13" transform="translate(664,472)"/>
<path d="M0 0 C2.00114133 3.33703232 2.2475336 5.85652171 2.24050903 9.72003174 C2.24325836 10.88668365 2.24600769 12.05333557 2.24884033 13.25534058 C2.24164978 14.53136139 2.23445923 15.8073822 2.22705078 17.12207031 C2.2264865 18.48224886 2.22680355 19.84242801 2.22793579 21.2026062 C2.22850966 24.89238771 2.2167498 28.58203921 2.20278788 32.2717905 C2.19028627 36.12883915 2.18911047 39.98589076 2.18673706 43.84295654 C2.18052062 51.14562454 2.16410758 58.44823265 2.14403808 65.75087428 C2.1216842 74.06518979 2.11068694 82.37950815 2.10064721 90.69384623 C2.07974149 107.79593212 2.04456232 124.89795973 2 142 C1.67 142 1.34 142 1 142 C-1.22210675 126.05576909 -1.17758501 110.31043164 -0.9765625 94.23828125 C-0.94912096 91.50776525 -0.92496747 88.77722268 -0.90072632 86.04667664 C-0.84206823 79.64753434 -0.77245241 73.24856271 -0.69865549 66.84957904 C-0.61503219 59.55068973 -0.54399616 52.2516937 -0.47388959 44.95266402 C-0.3296905 29.96828573 -0.17009965 14.9841084 0 0 Z " fill="#D90509" transform="translate(191,372)"/>
<path d="M0 0 C0.66 0 1.32 0 2 0 C2.83879963 5.82533568 3.14371579 11.45915043 3.12939453 17.33984375 C3.13114685 18.23880371 3.13289917 19.13776367 3.13470459 20.06396484 C3.13908629 23.02182987 3.13619408 25.97963441 3.1328125 28.9375 C3.13348753 31.02091483 3.13445922 33.10432958 3.13571167 35.18774414 C3.13718447 39.55876412 3.13505098 43.92976365 3.13037109 48.30078125 C3.12473082 53.83147351 3.12791885 59.36211663 3.13394356 64.89280701 C3.13760935 69.20353546 3.13638249 73.51425285 3.13381577 77.82498169 C3.13316001 79.85938523 3.13392615 81.89378987 3.13629532 83.92819214 C3.14964932 98.64196076 2.71746868 113.30378544 2 128 C1.67 128 1.34 128 1 128 C0.25807119 119.63707717 -0.14286619 111.36183362 -0.11352539 102.9675293 C-0.11367142 101.84397034 -0.11381744 100.72041138 -0.1139679 99.56280518 C-0.11327889 95.89992243 -0.10553457 92.23709246 -0.09765625 88.57421875 C-0.09578847 86.0144707 -0.09436627 83.45472229 -0.09336853 80.89497375 C-0.08995846 74.87822351 -0.08210106 68.86149544 -0.07201904 62.84475404 C-0.0607796 55.98606087 -0.05532786 49.12736674 -0.05032361 42.26866663 C-0.0399159 28.17910089 -0.02236566 14.08955147 0 0 Z " fill="#D7050B" transform="translate(137,488)"/>
<path d="M0 0 C1.06911118 -0.00021904 1.06911118 -0.00021904 2.15982056 -0.0004425 C4.50265607 0.00025108 6.84541089 0.00801739 9.18823242 0.01586914 C10.81776384 0.01773529 12.44729582 0.01915826 14.076828 0.02015686 C18.35608481 0.02396651 22.63530744 0.03378351 26.91455078 0.04486084 C31.28507017 0.05510837 35.6555951 0.05966163 40.02612305 0.06469727 C48.59449807 0.07540721 57.16284536 0.09246494 65.73120117 0.11352539 C65.73120117 0.77352539 65.73120117 1.43352539 65.73120117 2.11352539 C74.97120117 2.11352539 84.21120117 2.11352539 93.73120117 2.11352539 C93.73120117 2.44352539 93.73120117 2.77352539 93.73120117 3.11352539 C59.08120117 3.11352539 24.43120117 3.11352539 -11.26879883 3.11352539 C-11.59879883 2.45352539 -11.92879883 1.79352539 -12.26879883 1.11352539 C-8.1272751 0.11563895 -4.25383388 -0.00734686 0 0 Z " fill="#DA0F14" transform="translate(281.268798828125,368.886474609375)"/>
<path d="M0 0 C0.77261673 0.00141495 1.54523346 0.0028299 2.34126282 0.00428772 C4.80697514 0.00988159 7.2725964 0.02243292 9.73828125 0.03515625 C11.41080598 0.04017204 13.08333213 0.04473481 14.75585938 0.04882812 C18.85420171 0.05984901 22.95247604 0.07710941 27.05078125 0.09765625 C27.07592974 5.19815735 27.09384784 10.29862059 27.10571289 15.39916992 C27.11067109 17.12606435 27.11743968 18.85295476 27.1262207 20.57983398 C27.18337165 32.12768788 26.87858921 43.57833984 26.05078125 55.09765625 C25.72078125 55.09765625 25.39078125 55.09765625 25.05078125 55.09765625 C24.13963841 48.91827922 23.91815763 42.93217764 23.953125 36.69140625 C23.95453995 35.72609985 23.9559549 34.76079346 23.95741272 33.76623535 C23.96297045 30.7100096 23.97551495 27.65385952 23.98828125 24.59765625 C23.99330172 22.51432398 23.99786367 20.43099055 24.00195312 18.34765625 C24.01207133 13.26427094 24.03165478 8.18104741 24.05078125 3.09765625 C11.18078125 3.09765625 -1.68921875 3.09765625 -14.94921875 3.09765625 C-9.64078982 0.44344178 -5.8129313 -0.03999768 0 0 Z " fill="#D90B0F" transform="translate(727.94921875,368.90234375)"/>
<path d="M0 0 C0 0.66 0 1.32 0 2 C-0.68964844 2.21914063 -1.37929688 2.43828125 -2.08984375 2.6640625 C-13.01058778 6.34925184 -20.04779107 11.6563417 -27.93359375 20.0234375 C-30 22 -30 22 -32 22 C-32.26941406 22.5465625 -32.53882813 23.093125 -32.81640625 23.65625 C-33.65390942 25.31467211 -34.51872839 26.95943077 -35.40234375 28.59375 C-35.90894531 29.5528125 -36.41554688 30.511875 -36.9375 31.5 C-37.44152344 32.4384375 -37.94554687 33.376875 -38.46484375 34.34375 C-42.4564945 43.85058233 -43.55783639 53.53674067 -44.1875 63.75 C-44.26935547 64.9359375 -44.35121094 66.121875 -44.43554688 67.34375 C-44.63330327 70.22866679 -44.82130003 73.11385108 -45 76 C-47.77006859 73.22993141 -47.3118492 71.3144255 -47.38085938 67.52636719 C-47.33875254 48.47302576 -43.14191767 29.57626124 -29.375 15.5 C-21.92186917 8.29566744 -10.58217012 0 0 0 Z " fill="#DC0C11" transform="translate(840,368)"/>
<path d="M0 0 C4.04834904 -0.30944758 5.91034596 0.22535629 9.07421875 2.74609375 C10.19207764 3.62479126 10.19207764 3.62479126 11.33251953 4.52124023 C12.10966309 5.15360596 12.88680664 5.78597168 13.6875 6.4375 C14.4904248 7.07695557 15.29334961 7.71641113 16.12060547 8.37524414 C21.20116776 12.45150924 26.15175911 16.62886047 30.9140625 21.07421875 C32.8822032 22.89124752 34.9216889 24.56188565 37 26.25 C48.45391243 36.31835851 59.44358113 52.81642124 62 68 C62.19641379 71.05126541 62.14817937 73.93762635 62 77 C59.27143305 74.27143305 59.03824634 71.27337046 58.25 67.625 C51.71654703 39.83915786 29.61002578 21.51740149 7.3671875 5.71875 C4.84591101 3.88812021 2.41921327 1.96292038 0 0 Z " fill="#DB0B0F" transform="translate(864,471)"/>
<path d="M0 0 C0.99 0.33 1.98 0.66 3 1 C3 14.53 3 28.06 3 42 C-21.75 42 -46.5 42 -72 42 C-72 41.67 -72 41.34 -72 41 C-48.24 41 -24.48 41 0 41 C0 27.47 0 13.94 0 0 Z " fill="#DB0C11" transform="translate(679,369)"/>
<path d="M0 0 C0 0.66 0 1.32 0 2 C-3.96 2 -7.92 2 -12 2 C-12 14.54 -12 27.08 -12 40 C1.2 40 14.4 40 28 40 C28 40.33 28 40.66 28 41 C13.81 41 -0.38 41 -15 41 C-16.29487016 37.11538953 -16.1232604 33.44116044 -16.09765625 29.39453125 C-16.0962413 28.55532639 -16.09482635 27.71612152 -16.09336853 26.85148621 C-16.08777215 24.17178784 -16.07522035 21.4921731 -16.0625 18.8125 C-16.05748453 16.99544392 -16.05292171 15.17838652 -16.04882812 13.36132812 C-16.03780391 8.90751987 -16.02054178 4.45377411 -16 0 C-11.40456709 -2.29771645 -4.82752346 -1.24581251 0 0 Z " fill="#DD0D13" transform="translate(424,370)"/>
<path d="M0 0 C27.02069395 -0.11359107 53.9965933 -0.04360992 81 1 C81 1.33 81 1.66 81 2 C63.1306902 3.35830644 45.22592423 3.1174647 27.31890869 3.06866455 C23.10128282 3.05829123 18.88365068 3.05383742 14.66601562 3.04882812 C6.44399355 3.03821922 -1.77799852 3.02123428 -10 3 C-10 2.67 -10 2.34 -10 2 C-6.7 1.67 -3.4 1.34 0 1 C0 0.67 0 0.34 0 0 Z " fill="#DB1418" transform="translate(575,369)"/>
<path d="M0 0 C0.33 0 0.66 0 1 0 C1 18.15 1 36.3 1 55 C5.95 54.505 5.95 54.505 11 54 C12.88947772 53.92064792 14.78073339 53.86968241 16.671875 53.8671875 C18.14829468 53.86428711 18.14829468 53.86428711 19.65454102 53.86132812 C21.18679321 53.8680957 21.18679321 53.8680957 22.75 53.875 C24.35862915 53.87790039 24.35862915 53.87790039 25.99975586 53.88085938 C36.68225757 53.93734319 47.33548937 54.40693883 58 55 C58 55.66 58 56.32 58 57 C50.58540058 57.02312883 43.17080889 57.04091785 35.75618076 57.05181217 C32.31359652 57.05703982 28.87103688 57.06413531 25.4284668 57.07543945 C21.47444957 57.08834235 17.52044244 57.09322918 13.56640625 57.09765625 C11.70394005 57.10539818 11.70394005 57.10539818 9.80384827 57.11329651 C8.09218727 57.11340981 8.09218727 57.11340981 6.34594727 57.11352539 C5.335569 57.115746 4.32519073 57.11796661 3.28419495 57.12025452 C1 57 1 57 0 56 C-0.09365006 54.2507128 -0.11744438 52.49763746 -0.11352539 50.74584961 C-0.11344986 49.62476303 -0.11337433 48.50367645 -0.11329651 47.34861755 C-0.10813522 46.1288472 -0.10297394 44.90907684 -0.09765625 43.65234375 C-0.0962413 42.41078018 -0.09482635 41.16921661 -0.09336853 39.89002991 C-0.08870591 36.58394509 -0.07971497 33.27792854 -0.06866455 29.97186279 C-0.05844827 26.6003885 -0.05387045 23.22890717 -0.04882812 19.85742188 C-0.03777395 13.23826225 -0.02101736 6.61913507 0 0 Z " fill="#D80307" transform="translate(606,412)"/>
<path d="M0 0 C0.33 0 0.66 0 1 0 C1.17308685 10.56240237 1.33942197 21.12490043 1.5 31.6875 C1.51187725 32.46850948 1.5237545 33.24951897 1.53599167 34.0541954 C1.9390512 60.70424419 2.13932224 87.3465847 2 114 C1.34 114 0.68 114 0 114 C-0.94693723 110.00537305 -1.12899112 106.28838842 -1.1328125 102.1875 C-1.13413177 101.49358154 -1.13545105 100.79966309 -1.1368103 100.0847168 C-1.13876528 97.72310302 -1.13225423 95.36160246 -1.125 93 C-1.12411377 92.17661133 -1.12322754 91.35322266 -1.12231445 90.50488281 C-1.08535613 60.33551934 -0.48723588 30.16475757 0 0 Z " fill="#D8050B" transform="translate(268,499)"/>
<path d="M0 0 C0 14.19 0 28.38 0 43 C-2.64 43 -5.28 43 -8 43 C-8 42.67 -8 42.34 -8 42 C-6.02 42 -4.04 42 -2 42 C-2 29.13 -2 16.26 -2 3 C-9.92 3.495 -9.92 3.495 -18 4 C-21.67596481 4.06045995 -25.32709664 4.10003753 -29 4.0625 C-29.88171875 4.05798828 -30.7634375 4.05347656 -31.671875 4.04882812 C-33.78128164 4.03736396 -35.89065189 4.01945096 -38 4 C-34.692222 1.79481467 -33.22408932 1.6476868 -29.3359375 1.3671875 C-27.65177734 1.24150391 -27.65177734 1.24150391 -25.93359375 1.11328125 C-24.75925781 1.03464844 -23.58492188 0.95601562 -22.375 0.875 C-21.22386719 0.78863281 -20.07273437 0.70226562 -18.88671875 0.61328125 C-12.54336972 0.15760167 -6.3856047 0 0 0 Z " fill="#DD0C11" transform="translate(384,565)"/>
<path d="M0 0 C0 0.33 0 0.66 0 1 C-12.3591642 2.43977702 -24.71959916 3.66090857 -37.125 4.625 C-38.38463058 4.72405136 -38.38463058 4.72405136 -39.66970825 4.82510376 C-53.47480035 5.89590192 -67.14923754 6.37660683 -81 6 C-81 5.67 -81 5.34 -81 5 C-68.647899 3.5161097 -56.29929284 2.40612641 -43.88696289 1.56738281 C-41.06793978 1.37537052 -38.24984836 1.17234024 -35.43164062 0.96875 C-23.60151411 0.14280837 -11.85742279 -0.16955078 0 0 Z " fill="#DD0C12" transform="translate(374,608)"/>
<path d="M0 0 C3.67594705 1.55717201 6.12129687 3.82516175 9 6.5625 C15.35265001 12.46867862 22.22782392 17.55721583 29.25585938 22.62744141 C30.91406177 23.8247747 32.57025409 25.02489581 34.22460938 26.22753906 C35.86175186 27.41709464 37.50342869 28.60044441 39.15039062 29.77636719 C44.61709329 33.74944775 49.33126144 38.12394144 54 43 C54.9075 43.886875 55.815 44.77375 56.75 45.6875 C63 52.11111111 63 52.11111111 63 55 C59.75161077 53.91720359 58.95717417 53.10963155 56.8125 50.5625 C56.28269531 49.94503906 55.75289062 49.32757812 55.20703125 48.69140625 C54 47 54 47 54 45 C53.34 45 52.68 45 52 45 C50.30381698 43.36338193 48.64120726 41.69174297 47 40 C40.54603182 34.30465615 33.64161434 29.24478688 26.6875 24.1875 C6.54392608 9.5209706 6.54392608 9.5209706 0 2 C0 1.34 0 0.68 0 0 Z " fill="#DC0B0F" transform="translate(814,482)"/>
<path d="M0 0 C1.68303951 0.10192505 3.36614461 0.20277354 5.04931641 0.30249023 C8.70059917 0.51985995 12.35050133 0.75426012 16 1 C16 1.33 16 1.66 16 2 C-15.68 2 -47.36 2 -80 2 C-80 1.67 -80 1.34 -80 1 C-72.81809722 0.71096739 -65.63586145 0.43237672 -58.45308495 0.16588497 C-55.11514482 0.0417401 -51.77749363 -0.08655892 -48.43994141 -0.22094727 C-32.21568886 -0.87175062 -16.20497011 -1.07234874 0 0 Z " fill="#D8050B" transform="translate(512,370)"/>
<path d="M0 0 C12.21 0 24.42 0 37 0 C37 0.33 37 0.66 37 1 C39.31 1.33 41.62 1.66 44 2 C44 2.33 44 2.66 44 3 C29.48 3 14.96 3 0 3 C0 2.01 0 1.02 0 0 Z " fill="#E32026" transform="translate(563,603)"/>
<path d="M0 0 C3.64048386 1.82024193 4.68988674 6.35651318 6.3671875 9.921875 C8.2995547 13.56471078 10.2211494 17.1105747 14 19 C14 19.66 14 20.32 14 21 C14.85851562 21.38285156 14.85851562 21.38285156 15.734375 21.7734375 C18.24173733 23.13087159 20.1330456 24.71974104 22.25 26.625 C22.95640625 27.25664062 23.6628125 27.88828125 24.390625 28.5390625 C24.92171875 29.02117187 25.4528125 29.50328125 26 30 C25.67 30.66 25.34 31.32 25 32 C21.99017648 29.67909164 18.99146146 27.34452752 16 25 C15.04287109 24.25363281 15.04287109 24.25363281 14.06640625 23.4921875 C12.67187194 22.37522237 11.32974605 21.19336184 10 20 C10 19.34 10 18.68 10 18 C9.34 18 8.68 18 8 18 C3.67297248 12.47379626 0.15823501 7.12057532 0 0 Z " fill="#DA090E" transform="translate(838,438)"/>
<path d="M0 0 C1.54897985 3.0979597 0.83239539 6.26216552 0.5625 9.625 C0.51029297 10.33140625 0.45808594 11.0378125 0.40429688 11.765625 C0.27458793 13.51079987 0.13795046 15.25545725 0 17 C-0.33 17 -0.66 17 -1 17 C-2.32286246 12.03926578 -2.08893197 7.08888488 -2 2 C-3.155 2.165 -4.31 2.33 -5.5 2.5 C-12.6385158 3.31353872 -19.82734659 3.07920722 -27 3 C-23.99481783 0.99654522 -22.91590205 0.67639065 -19.47265625 0.33203125 C-18.16071289 0.19958008 -18.16071289 0.19958008 -16.82226562 0.06445312 C-15.45618164 -0.06026367 -15.45618164 -0.06026367 -14.0625 -0.1875 C-13.15564453 -0.28224609 -12.24878906 -0.37699219 -11.31445312 -0.47460938 C-3.4118966 -1.23637163 -3.4118966 -1.23637163 0 0 Z " fill="#DC0A0F" transform="translate(835,542)"/>
<path d="M0 0 C1.65 0.33 3.3 0.66 5 1 C4.67 1.66 4.34 2.32 4 3 C3.34 3 2.68 3 2 3 C2 13.23 2 23.46 2 34 C1.01 34.495 1.01 34.495 0 35 C-1.07450355 28.02425475 -1.14942172 21.17473624 -1.125 14.125 C-1.12886719 12.98546875 -1.13273437 11.8459375 -1.13671875 10.671875 C-1.13542969 9.58648437 -1.13414063 8.50109375 -1.1328125 7.3828125 C-1.13112061 5.90385498 -1.13112061 5.90385498 -1.12939453 4.39501953 C-1 2 -1 2 0 0 Z " fill="#DC0E13" transform="translate(98,369)"/>
<path d="M0 0 C11.88 0.33 23.76 0.66 36 1 C36 1.33 36 1.66 36 2 C22.25624208 2.88153252 8.5819285 3.12590948 -5.1875 3.0625 C-7.12434778 3.05746585 -9.06119685 3.05290639 -10.99804688 3.04882812 C-15.66539756 3.0379951 -20.33268372 3.02084053 -25 3 C-25 2.67 -25 2.34 -25 2 C-16.75 2 -8.5 2 0 2 C0 1.34 0 0.68 0 0 Z " fill="#D70308" transform="translate(620,369)"/>
<path d="M0 0 C8 1 8 1 11.5625 1.5 C16.85845026 2.16199378 22.17042075 2.34917695 27.5 2.5625 C29.01980469 2.62727539 29.01980469 2.62727539 30.5703125 2.69335938 C33.0467679 2.79849192 35.52330749 2.90063837 38 3 C36 5 36 5 33.91210938 5.24291992 C33.06455078 5.23881104 32.21699219 5.23470215 31.34375 5.23046875 C30.40273438 5.22853516 29.46171875 5.22660156 28.4921875 5.22460938 C27.50476563 5.21236328 26.51734375 5.20011719 25.5 5.1875 C24.54351563 5.18685547 23.58703125 5.18621094 22.6015625 5.18554688 C16.3486572 5.1474194 10.20842102 4.7386525 4 4 C4 3.34 4 2.68 4 2 C2.68 1.67 1.36 1.34 0 1 C0 0.67 0 0.34 0 0 Z " fill="#DC0F13" transform="translate(840,620)"/>
<path d="M0 0 C2 1 2 1 2.96484375 3.44140625 C3.44630859 4.98634766 3.44630859 4.98634766 3.9375 6.5625 C5.62272137 11.8459236 5.62272137 11.8459236 7.5 17.0625 C7.73203125 17.67738281 7.9640625 18.29226563 8.203125 18.92578125 C8.82799071 20.55226993 9.46617433 22.17364312 10.109375 23.79296875 C10.48578125 24.76878906 10.8621875 25.74460937 11.25 26.75 C11.78367188 28.10351562 11.78367188 28.10351562 12.328125 29.484375 C13.03948983 32.14785728 12.93129629 33.44490504 12 36 C8.74082448 28.61053292 5.88699156 21.10897238 3.1875 13.5 C2.87353271 12.62762695 2.55956543 11.75525391 2.23608398 10.85644531 C1.94548096 10.02725586 1.65487793 9.19806641 1.35546875 8.34375 C1.09403076 7.60318359 0.83259277 6.86261719 0.56323242 6.09960938 C0 4 0 4 0 0 Z " fill="#DA090E" transform="translate(145,502)"/>
<path d="M0 0 C0.66 0.66 1.32 1.32 2 2 C0.865625 2.02578125 -0.26875 2.0515625 -1.4375 2.078125 C-12.97304291 2.07166759 -12.97304291 2.07166759 -23 7 C-24.95059807 9.24994728 -26.42943618 11.44783379 -28 14 C-28.33 13.01 -28.66 12.02 -29 11 C-27.78258021 9.53184611 -26.55051239 8.07583153 -25.3125 6.625 C-24.62800781 5.81289063 -23.94351563 5.00078125 -23.23828125 4.1640625 C-17.20549205 -1.66868657 -7.82901227 -1.83367904 0 0 Z " fill="#DC0B10" transform="translate(868,403)"/>
<path d="M0 0 C1.51303711 0.00676758 1.51303711 0.00676758 3.05664062 0.01367188 C5.51699147 0.02533231 7.97721239 0.04169622 10.4375 0.0625 C10.4375 0.7225 10.4375 1.3825 10.4375 2.0625 C0.0885926 2.71293638 -10.1890501 3.22744885 -20.5625 3.0625 C-20.5625 2.4025 -20.5625 1.7425 -20.5625 1.0625 C-13.66631142 0.15679581 -6.95041455 -0.0597984 0 0 Z " fill="#DB090E" transform="translate(332.5625,568.9375)"/>
<path d="M0 0 C3.64574489 1.2152483 4.23605857 2.74979307 6.03515625 6.015625 C6.51275391 6.99789063 6.51275391 6.99789063 7 8 C7.36738281 8.71027344 7.73476563 9.42054688 8.11328125 10.15234375 C9.38111211 14.2239239 9.21191117 18.0772517 9.125 22.3125 C9.11597656 23.14845703 9.10695313 23.98441406 9.09765625 24.84570312 C9.07420989 26.89725969 9.03834266 28.94866777 9 31 C9.99 31.33 10.98 31.66 12 32 C10.68 32 9.36 32 8 32 C7.93006836 31.40574219 7.86013672 30.81148438 7.78808594 30.19921875 C7.4573559 27.46404941 7.10384554 24.73227121 6.75 22 C6.58564453 20.59814453 6.58564453 20.59814453 6.41796875 19.16796875 C5.70017432 13.7656212 4.60138284 9.41650498 1.91113281 4.65625 C1 3 1 3 0 0 Z " fill="#DD0B10" transform="translate(876,409)"/>
<path d="M0 0 C0.33 0 0.66 0 1 0 C2.01636963 10.16369634 -2.19206566 19.8341436 -8 28 C-8.66 27.67 -9.32 27.34 -10 27 C-8.515 23.535 -8.515 23.535 -7 20 C-6.34 20 -5.68 20 -5 20 C-4.89042969 19.31035156 -4.78085937 18.62070312 -4.66796875 17.91015625 C-3.62116731 11.70594284 -2.18534323 5.90042672 0 0 Z " fill="#DA0C10" transform="translate(925,572)"/>
<path d="M0 0 C2.62049143 2.29017738 3.5964346 4.22148152 4.6875 7.5 C7.04786417 13.77579179 10.89311886 18.75674884 15 24 C14.01 24.33 13.02 24.66 12 25 C10.55862125 22.79411638 9.12184635 20.58545003 7.6875 18.375 C7.28337891 17.75753906 6.87925781 17.14007813 6.46289062 16.50390625 C-0.50633286 5.73843908 -0.50633286 5.73843908 0 0 Z " fill="#DB0A0E" transform="translate(797,454)"/>
<path d="M0 0 C2.73767877 1.03842988 3.83334876 1.71107211 5.3203125 4.2890625 C7.22242104 7.35897722 9.33977279 9.32566447 12.0625 11.6875 C12.94035156 12.45449219 13.81820312 13.22148438 14.72265625 14.01171875 C15.47417969 14.66785156 16.22570312 15.32398438 17 16 C17.66 16.66 18.32 17.32 19 18 C14.43122963 17.5096132 12.25983432 15.85153003 8.9375 12.75 C8.10089844 11.98171875 7.26429688 11.2134375 6.40234375 10.421875 C0 3.96747967 0 3.96747967 0 0 Z " fill="#DB0B0F" transform="translate(804,593)"/>
<path d="M0 0 C3.64678443 3.277264 4.68884427 6.96052291 6.25 11.5 C6.53101563 12.27214844 6.81203125 13.04429687 7.1015625 13.83984375 C7.36195313 14.58363281 7.62234375 15.32742188 7.890625 16.09375 C8.12813477 16.77115234 8.36564453 17.44855469 8.61035156 18.14648438 C9 20 9 20 8 23 C5.49755555 19.13258585 3.85646152 15.27264722 2.3125 10.9375 C1.87550781 9.72964844 1.43851563 8.52179687 0.98828125 7.27734375 C0 4 0 4 0 0 Z " fill="#DB0C10" transform="translate(177,594)"/>
<path d="M0 0 C2.39762941 2.14753655 3.55957647 3.90670958 4.60546875 6.94140625 C4.86650391 7.68970703 5.12753906 8.43800781 5.39648438 9.20898438 C5.65751953 9.98564453 5.91855469 10.76230469 6.1875 11.5625 C6.46013672 12.34302734 6.73277344 13.12355469 7.01367188 13.92773438 C9 19.69754464 9 19.69754464 9 22 C8.01 21.67 7.02 21.34 6 21 C4.78567121 18.41179557 3.76842417 15.93130828 2.8125 13.25 C2.40354492 12.17492187 2.40354492 12.17492187 1.98632812 11.078125 C0.58982747 7.27012322 -0.36488485 4.1191445 0 0 Z " fill="#DB0B10" transform="translate(158,539)"/>
<path d="M0 0 C3.46184658 5.38657982 1.84957993 11.97072308 1 18 C0.25375303 20.7073146 -0.57682631 22.55214125 -2 25 C-2.66 25.33 -3.32 25.66 -4 26 C-3.55159156 23.68322308 -3.09365749 21.37616532 -2.5234375 19.0859375 C-0.98282324 12.76252076 -0.41708492 6.48676805 0 0 Z " fill="#DA070D" transform="translate(883,552)"/>
<path d="M0 0 C2.65073746 1.32536873 2.72666671 2.43259841 3.7265625 5.18359375 C4.0359375 6.02857422 4.3453125 6.87355469 4.6640625 7.74414062 C4.98117188 8.63294922 5.29828125 9.52175781 5.625 10.4375 C5.94984375 11.32244141 6.2746875 12.20738281 6.609375 13.11914062 C9 19.71344866 9 19.71344866 9 22 C6 21 6 21 5.10864258 19.3894043 C4.87298584 18.70789307 4.6373291 18.02638184 4.39453125 17.32421875 C4.13349609 16.57849609 3.87246094 15.83277344 3.60351562 15.06445312 C3.34248047 14.28005859 3.08144531 13.49566406 2.8125 12.6875 C2.53986328 11.91470703 2.26722656 11.14191406 1.98632812 10.34570312 C0.70070243 6.5983781 0 4.04201168 0 0 Z " fill="#DB0A0F" transform="translate(167,565)"/>
<path d="M0 0 C1.93166016 0.01740234 1.93166016 0.01740234 3.90234375 0.03515625 C5.19269531 0.04417969 6.48304688 0.05320312 7.8125 0.0625 C8.81152344 0.07410156 9.81054688 0.08570313 10.83984375 0.09765625 C10.83984375 0.42765625 10.83984375 0.75765625 10.83984375 1.09765625 C4.89984375 1.59265625 4.89984375 1.59265625 -1.16015625 2.09765625 C-1.16015625 5.06765625 -1.16015625 8.03765625 -1.16015625 11.09765625 C-2.15015625 11.59265625 -2.15015625 11.59265625 -3.16015625 12.09765625 C-4.33677133 8.42073412 -4.30491558 4.93377845 -4.16015625 1.09765625 C-3.16015625 0.09765625 -3.16015625 0.09765625 0 0 Z " fill="#DB0B0F" transform="translate(794.16015625,544.90234375)"/>
<path d="M0 0 C0 0.66 0 1.32 0 2 C-1.65 2.66 -3.3 3.32 -5 4 C-5 4.66 -5 5.32 -5 6 C-7.45779976 6.22126178 -9.91527648 6.42750395 -12.375 6.625 C-13.42300781 6.72167969 -13.42300781 6.72167969 -14.4921875 6.8203125 C-16.32369111 6.96119739 -18.16312748 6.98761659 -20 7 C-20.66 6.34 -21.32 5.68 -22 5 C-20.58847656 4.83564453 -20.58847656 4.83564453 -19.1484375 4.66796875 C-17.90320313 4.50941406 -16.65796875 4.35085938 -15.375 4.1875 C-13.53035156 3.96126953 -13.53035156 3.96126953 -11.6484375 3.73046875 C-7.62693336 2.92530679 -3.961652 0 0 0 Z " fill="#DC0A0E" transform="translate(878,579)"/>
<path d="M0 0 C0.33 0 0.66 0 1 0 C0.98259766 1.918125 0.98259766 1.918125 0.96484375 3.875 C0.95545731 5.58333186 0.94635803 7.29166532 0.9375 9 C0.92912109 9.83917969 0.92074219 10.67835938 0.91210938 11.54296875 C0.89650992 15.56762771 0.99760513 19.44950116 1.56640625 23.4375 C2 27 2 27 1 30 C0.34 30 -0.32 30 -1 30 C-1.14141393 19.94389808 -0.72904559 10.02437685 0 0 Z " fill="#E02025" transform="translate(139,600)"/>
<path d="M0 0 C0.28875 0.639375 0.5775 1.27875 0.875 1.9375 C1.82823451 4.15206079 1.82823451 4.15206079 4 5 C4.45375 5.928125 4.9075 6.85625 5.375 7.8125 C6.93967101 10.88166237 8.45910288 12.72195431 11 15 C10.67 15.99 10.34 16.98 10 18 C0.2595715 8.98009635 0.2595715 8.98009635 -0.1875 2.125 C-0.125625 1.42375 -0.06375 0.7225 0 0 Z " fill="#DC0B10" transform="translate(836,564)"/>
<path d="M0 0 C-1.60558484 1.92536938 -2.47769478 2.91074167 -4.99291992 3.34057617 C-5.73131104 3.32486572 -6.46970215 3.30915527 -7.23046875 3.29296875 C-8.03291016 3.28330078 -8.83535156 3.27363281 -9.66210938 3.26367188 C-10.49548828 3.23853516 -11.32886719 3.21339844 -12.1875 3.1875 C-13.03248047 3.17396484 -13.87746094 3.16042969 -14.74804688 3.14648438 C-16.83230384 3.11115799 -18.91623277 3.05735139 -21 3 C-17.80530684 0.87020456 -16.47588022 0.65600214 -12.75 0.375 C-11.77933594 0.30152344 -10.80867187 0.22804688 -9.80859375 0.15234375 C-6.52556338 -0.02573439 -3.28645394 -0.07303231 0 0 Z " fill="#DD0A0F" transform="translate(227,619)"/>
<path d="M0 0 C0.99 0.495 0.99 0.495 2 1 C2 1.66 2 2.32 2 3 C7.28 3 12.56 3 18 3 C14.36280395 5.42479736 12.14296518 5.38662577 7.8125 5.625 C6.54019531 5.69976563 5.26789063 5.77453125 3.95703125 5.8515625 C2.98121094 5.90054688 2.00539062 5.94953125 1 6 C0.67 4.02 0.34 2.04 0 0 Z " fill="#DC0C11" transform="translate(186,619)"/>
<path d="M0 0 C-1 3 -1 3 -3.0390625 4.16796875 C-8.28262123 6.23529327 -12.35893869 7.49052707 -18 7 C-15.4965733 4.4965733 -13.36472382 4.00110861 -10 2.9375 C-0.77735849 0 -0.77735849 0 0 0 Z " fill="#DC0D12" transform="translate(897,616)"/>
<path d="M0 0 C0.33 0.66 0.66 1.32 1 2 C-6.90132827 11.38140417 -6.90132827 11.38140417 -11 14 C-11.99 13.67 -12.98 13.34 -14 13 C-13.32453125 12.48050781 -12.6490625 11.96101562 -11.953125 11.42578125 C-11.06109375 10.72839844 -10.1690625 10.03101563 -9.25 9.3125 C-8.36828125 8.62800781 -7.4865625 7.94351563 -6.578125 7.23828125 C-4.01771584 5.01538057 -2.02943654 2.70749594 0 0 Z " fill="#DA0C0F" transform="translate(914,601)"/>
<path d="M0 0 C5.61 0 11.22 0 17 0 C16.34 1.32 15.68 2.64 15 4 C15 3.34 15 2.68 15 2 C10.05 2 5.1 2 0 2 C0 1.34 0 0.68 0 0 Z " fill="#D81516" transform="translate(738,369)"/>
<path d="M0 0 C3.16470185 4.74705277 3.10927475 8.31771295 3 14 C1 13 1 13 0.37890625 11.234375 C-0.02399618 8.85849677 -0.09791478 6.65820483 -0.0625 4.25 C-0.05347656 3.45078125 -0.04445313 2.6515625 -0.03515625 1.828125 C-0.02355469 1.22484375 -0.01195312 0.6215625 0 0 Z " fill="#DB090E" transform="translate(792,559)"/>
<path d="M0 0 C1.22589844 0.01353516 1.22589844 0.01353516 2.4765625 0.02734375 C3.41628906 0.04474609 3.41628906 0.04474609 4.375 0.0625 C4.705 1.0525 5.035 2.0425 5.375 3.0625 C3.9379191 3.11672947 2.50024538 3.15539723 1.0625 3.1875 C0.26199219 3.21070313 -0.53851563 3.23390625 -1.36328125 3.2578125 C-3.625 3.0625 -3.625 3.0625 -6.625 1.0625 C-4.21954362 -0.14022819 -2.67503047 -0.03821472 0 0 Z " fill="#D90E12" transform="translate(214.625,368.9375)"/>
<path d="M0 0 C3.35250701 0.57575664 4.93818629 1.59306263 7.25 4.0625 C8.03117188 4.88427734 8.03117188 4.88427734 8.828125 5.72265625 C9.21484375 6.14417969 9.6015625 6.56570313 10 7 C9.67 7.99 9.34 8.98 9 10 C7.88625 8.63875 7.88625 8.63875 6.75 7.25 C4.62325416 4.6930577 2.39770184 2.30889807 0 0 Z " fill="#DA0B0E" transform="translate(904,379)"/>
<path d="M0 0 C2.0343459 1.41519715 2.90410393 2.54982123 3.421875 4.98046875 C3.66273952 6.98176954 3.83532741 8.9909944 4 11 C1.9656541 9.58480285 1.09589607 8.45017877 0.578125 6.01953125 C0.33726048 4.01823046 0.16467259 2.0090056 0 0 Z " fill="#DC0A0F" transform="translate(141,490)"/>
<path d="M0 0 C2.33333823 2.12121657 3.9148886 4.01594365 5 7 C4.625 9.25 4.625 9.25 4 11 C1.55160412 7.32740617 0 4.45351799 0 0 Z " fill="#DA080C" transform="translate(878,539)"/>
<path d="M0 0 C0.66 0 1.32 0 2 0 C3.5625 2.8125 3.5625 2.8125 5 6 C4.67 6.99 4.34 7.98 4 9 C0 3.375 0 3.375 0 0 Z " fill="#D90A0E" transform="translate(798,583)"/>
<path d="M0 0 C3.86107457 2.57404971 3.94319692 4.61020259 5 9 C4.01 9.495 4.01 9.495 3 10 C0 3.375 0 3.375 0 0 Z " fill="#DB090E" transform="translate(187,507)"/>
<path d="M0 0 C3.3 0.33 6.6 0.66 10 1 C7 3 7 3 3.875 2.75 C2.92625 2.5025 1.9775 2.255 1 2 C0.67 1.34 0.34 0.68 0 0 Z " fill="#DC0E13" transform="translate(849,582)"/>
<path d="M0 0 C1.65 0 3.3 0 5 0 C5 0.33 5 0.66 5 1 C3.35 1 1.7 1 0 1 C0 0.67 0 0.34 0 0 Z " fill="#E3282E" transform="translate(307,615)"/>
<path d="" fill="#E8262C" transform="translate(0,0)"/>
<path d="" fill="#E72429" transform="translate(0,0)"/>
<path d="" fill="#E92329" transform="translate(0,0)"/>
<path d="M0 0 C2 1 2 1 2 1 Z " fill="#E62931" transform="translate(323,614)"/>
<path d="" fill="#E7262C" transform="translate(0,0)"/>
<path d="" fill="#E3252B" transform="translate(0,0)"/>
<path d="" fill="#E5242A" transform="translate(0,0)"/>
<path d="" fill="#E8252E" transform="translate(0,0)"/>
<path d="" fill="#E72329" transform="translate(0,0)"/>
<path d="" fill="#E72328" transform="translate(0,0)"/>
<path d="" fill="#EA2329" transform="translate(0,0)"/>
<path d="" fill="#E7232A" transform="translate(0,0)"/>
<path d="" fill="#E82228" transform="translate(0,0)"/>
<path d="" fill="#E7272E" transform="translate(0,0)"/>
<path d="" fill="#E72028" transform="translate(0,0)"/>
<path d="M0 0 C2 1 2 1 2 1 Z " fill="#E53236" transform="translate(915,438)"/>
<path d="" fill="#EA2228" transform="translate(0,0)"/>
<path d="" fill="#EA2229" transform="translate(0,0)"/>
<path d="M0 0 C2 1 2 1 2 1 Z " fill="#EC1F27" transform="translate(436,413)"/>
<path d="M0 0 C2 1 2 1 2 1 Z " fill="#EB2129" transform="translate(417,413)"/>
<path d="" fill="#E32B30" transform="translate(0,0)"/>
<path d="" fill="#A3A4A4" transform="translate(0,0)"/>
<path d="" fill="#DB3539" transform="translate(0,0)"/>
<path d="" fill="#E13338" transform="translate(0,0)"/>
<path d="" fill="#E53135" transform="translate(0,0)"/>
<path d="" fill="#E12C33" transform="translate(0,0)"/>
<path d="" fill="#E33035" transform="translate(0,0)"/>
<path d="" fill="#E43639" transform="translate(0,0)"/>
<path d="" fill="#E23A3C" transform="translate(0,0)"/>
<path d="" fill="#E83337" transform="translate(0,0)"/>
<path d="" fill="#E42B30" transform="translate(0,0)"/>
<path d="" fill="#E72C30" transform="translate(0,0)"/>
<path d="" fill="#E42E32" transform="translate(0,0)"/>
<path d="" fill="#E42B32" transform="translate(0,0)"/>
<path d="" fill="#E0383B" transform="translate(0,0)"/>
<path d="" fill="#E03536" transform="translate(0,0)"/>
<path d="" fill="#E1373B" transform="translate(0,0)"/>
<path d="" fill="#E33138" transform="translate(0,0)"/>
<path d="" fill="#E6282F" transform="translate(0,0)"/>
<path d="" fill="#E8242B" transform="translate(0,0)"/>
<path d="" fill="#E7252B" transform="translate(0,0)"/>
<path d="" fill="#E42F38" transform="translate(0,0)"/>
<path d="" fill="#E5282B" transform="translate(0,0)"/>
<path d="" fill="#E7242C" transform="translate(0,0)"/>
<path d="" fill="#E4222B" transform="translate(0,0)"/>
<path d="" fill="#E8232B" transform="translate(0,0)"/>
<path d="" fill="#E3232B" transform="translate(0,0)"/>
<path d="" fill="#E8252B" transform="translate(0,0)"/>
<path d="" fill="#E9262A" transform="translate(0,0)"/>
<path d="" fill="#E4232A" transform="translate(0,0)"/>
<path d="" fill="#E7222D" transform="translate(0,0)"/>
<path d="" fill="#E52329" transform="translate(0,0)"/>
<path d="" fill="#E7222A" transform="translate(0,0)"/>
<path d="" fill="#E82329" transform="translate(0,0)"/>
<path d="" fill="#E92329" transform="translate(0,0)"/>
<path d="" fill="#E9252D" transform="translate(0,0)"/>
<path d="" fill="#E32D33" transform="translate(0,0)"/>
<path d="" fill="#E53037" transform="translate(0,0)"/>
<path d="" fill="#E23335" transform="translate(0,0)"/>
<path d="" fill="#E4252A" transform="translate(0,0)"/>
<path d="" fill="#E7242A" transform="translate(0,0)"/>
<path d="" fill="#E72229" transform="translate(0,0)"/>
<path d="" fill="#E92229" transform="translate(0,0)"/>
<path d="" fill="#E9262B" transform="translate(0,0)"/>
<path d="" fill="#E5292D" transform="translate(0,0)"/>
<path d="" fill="#E1252C" transform="translate(0,0)"/>
<path d="" fill="#E92029" transform="translate(0,0)"/>
<path d="" fill="#E32A31" transform="translate(0,0)"/>
<path d="" fill="#E42A30" transform="translate(0,0)"/>
<path d="" fill="#E42B32" transform="translate(0,0)"/>
<path d="" fill="#EA2B30" transform="translate(0,0)"/>
<path d="" fill="#EA222A" transform="translate(0,0)"/>
<path d="" fill="#E7212B" transform="translate(0,0)"/>
<path d="" fill="#E72129" transform="translate(0,0)"/>
<path d="" fill="#E92429" transform="translate(0,0)"/>
<path d="" fill="#E92328" transform="translate(0,0)"/>
<path d="" fill="#E82328" transform="translate(0,0)"/>
<path d="" fill="#E4242B" transform="translate(0,0)"/>
<path d="" fill="#E62129" transform="translate(0,0)"/>
<path d="" fill="#E9222B" transform="translate(0,0)"/>
<path d="" fill="#E62328" transform="translate(0,0)"/>
<path d="" fill="#E82228" transform="translate(0,0)"/>
<path d="" fill="#E53033" transform="translate(0,0)"/>
<path d="" fill="#E33A3C" transform="translate(0,0)"/>
<path d="" fill="#E8222B" transform="translate(0,0)"/>
<path d="" fill="#E72129" transform="translate(0,0)"/>
<path d="" fill="#E8202A" transform="translate(0,0)"/>
<path d="" fill="#E6252B" transform="translate(0,0)"/>
<path d="" fill="#ED2328" transform="translate(0,0)"/>
<path d="" fill="#E82026" transform="translate(0,0)"/>
<path d="" fill="#EB222A" transform="translate(0,0)"/>
<path d="" fill="#EC2028" transform="translate(0,0)"/>
<path d="" fill="#ED2129" transform="translate(0,0)"/>
<path d="" fill="#ED2227" transform="translate(0,0)"/>
<path d="" fill="#ED2028" transform="translate(0,0)"/>
<path d="" fill="#EC2128" transform="translate(0,0)"/>
<path d="" fill="#E9252A" transform="translate(0,0)"/>
<path d="" fill="#EB2228" transform="translate(0,0)"/>
<path d="" fill="#EA2129" transform="translate(0,0)"/>
<path d="" fill="#E8242D" transform="translate(0,0)"/>
<path d="" fill="#E8222A" transform="translate(0,0)"/>
<path d="" fill="#E12930" transform="translate(0,0)"/>
<path d="" fill="#E13B3D" transform="translate(0,0)"/>
<path d="" fill="#E02F35" transform="translate(0,0)"/>
<path d="" fill="#E13137" transform="translate(0,0)"/>
<path d="" fill="#E1393D" transform="translate(0,0)"/>
<path d="" fill="#E13435" transform="translate(0,0)"/>
<path d="" fill="#E23234" transform="translate(0,0)"/>
<path d="" fill="#DD373B" transform="translate(0,0)"/>
</svg>
